<?xml version="1.0" encoding="UTF-8" standalone="no"?>
<!DOCTYPE svg PUBLIC "-//W3C//DTD SVG 1.1//EN" "http://www.w3.org/Graphics/SVG/1.1/DTD/svg11.dtd">
<svg width="100%" height="100%" viewBox="0 0 414 267" version="1.1" xmlns="http://www.w3.org/2000/svg" xmlns:xlink="http://www.w3.org/1999/xlink" xml:space="preserve" xmlns:serif="http://www.serif.com/" style="fill-rule:evenodd;clip-rule:evenodd;stroke-linejoin:round;stroke-miterlimit:2;">
    <g transform="matrix(1,0,0,1,-1568,-12)">
        <g id="Artboard2" transform="matrix(1.235821,0,0,0.780702,-369.767164,2.631579)">
            <rect x="1568" y="12" width="335" height="342" style="fill:none;"/>
            <g transform="matrix(0.083064,0,0,0.131487,1680.258643,31.493525)">
                <path d="M569.119,678.475C569.656,680.862 570.15,683.259 570.601,685.664C572.123,693.885 574.753,698.139 575.793,706.435C577.6,720.853 572.618,743.49 572.598,743.582C572.625,743.605 576.669,747.038 578.189,749.973C581.123,755.635 578.207,766.287 578.189,766.35C578.162,766.368 574.219,769.054 572.598,771.542C568.947,777.146 572.577,788.653 572.598,788.718L567.805,790.715L567.805,802.698C567.796,802.711 563.613,808.513 561.812,812.684C559.046,819.095 558.223,830.186 558.218,830.259C558.196,830.281 551.702,836.865 549.83,845.837C547.955,854.824 538.816,865.275 536.353,877.392C511.987,910.944 501.645,939.058 499.377,976.851L800.799,976.851C798.668,941.345 784.266,909.146 761.777,884.438C761.759,884.339 756.977,858.1 748.349,843.84C742.35,833.926 729.258,821.152 729.176,821.072L721.985,805.894L723.583,781.528L720.787,764.752L717.192,743.582L715.994,701.642L723.184,694.451L723.184,684.066L725.931,678.475L863.487,678.475C866.802,678.475 870.098,678.554 873.373,678.712L874.188,678.753C876.118,678.853 878.041,678.98 879.958,679.135L880.302,679.162L880.734,679.199L881.603,679.273C882.294,679.335 882.984,679.4 883.673,679.468L884.176,679.518C885.746,679.678 887.313,679.855 888.879,680.051L889.171,680.088C890.034,680.197 890.897,680.312 891.759,680.432L892.056,680.474L892.974,680.605C893.681,680.709 894.386,680.816 895.091,680.927L895.49,680.989L895.752,681.031C896.492,681.15 897.231,681.272 897.969,681.397L898.615,681.511L899.245,681.621C900.349,681.818 901.449,682.024 902.546,682.238L902.901,682.307C903.228,682.371 903.553,682.436 903.878,682.503L904.138,682.556L904.906,682.714L905.401,682.817L905.992,682.943L906.65,683.084L907.371,683.242L908.792,683.562L909.024,683.614C910.139,683.871 911.25,684.136 912.357,684.411L912.647,684.482L912.827,684.527C913.432,684.679 914.037,684.833 914.64,684.99L915.161,685.127L915.829,685.305L916.295,685.429C917.039,685.629 917.781,685.834 918.522,686.043L918.7,686.093C919.845,686.416 920.985,686.75 922.121,687.093L922.271,687.138L923.506,687.516C925.761,688.215 927.999,688.952 930.22,689.728L930.567,689.849C930.778,689.922 930.988,689.996 931.198,690.071L931.722,690.257L932.483,690.532C932.621,690.581 932.759,690.631 932.896,690.682L933.387,690.862L934.085,691.12C934.851,691.405 935.615,691.694 936.378,691.988L936.798,692.151C937.071,692.257 937.344,692.364 937.616,692.472C940.142,693.465 942.648,694.51 945.131,695.606L945.445,695.745C946.041,696.01 946.635,696.277 947.228,696.547L948.136,696.964C948.9,697.313 949.66,697.669 950.418,698.032C951.559,698.574 952.694,699.128 953.824,699.692C954.135,699.847 954.445,700.003 954.754,700.16C955.181,700.376 955.607,700.593 956.034,700.812C956.362,700.981 956.69,701.151 957.017,701.322L958.115,701.899C958.477,702.091 958.838,702.284 959.198,702.478C959.567,702.675 959.934,702.873 960.3,703.072C960.657,703.268 961.014,703.465 961.371,703.662C961.714,703.852 962.057,704.042 962.398,704.233L963.5,704.856C963.847,705.053 964.194,705.252 964.541,705.452C964.878,705.647 965.214,705.842 965.549,706.039C965.924,706.258 966.299,706.479 966.674,706.7C967.012,706.901 967.349,707.103 967.686,707.306C968.03,707.513 968.374,707.721 968.719,707.93C969.067,708.143 969.415,708.356 969.762,708.571C970.106,708.783 970.45,708.996 970.793,709.211C971.154,709.438 971.514,709.665 971.873,709.894C972.514,710.299 973.152,710.708 973.786,711.123C974.177,711.376 974.568,711.632 974.957,711.889C975.24,712.076 975.522,712.263 975.803,712.452C976.174,712.699 976.544,712.948 976.913,713.197L977.843,713.832C978.221,714.091 978.598,714.351 978.975,714.612L979.795,715.188C980.465,715.655 981.131,716.128 981.792,716.608C982.169,716.88 982.546,717.153 982.922,717.428C983.2,717.632 983.478,717.837 983.755,718.042C984.122,718.313 984.488,718.584 984.853,718.857L985.681,719.483C986.064,719.773 986.445,720.064 986.826,720.356L987.523,720.896C987.93,721.211 988.335,721.528 988.74,721.846C988.991,722.044 989.241,722.243 989.49,722.442C989.863,722.737 990.235,723.034 990.604,723.333C990.874,723.552 991.143,723.771 991.412,723.991C991.762,724.276 992.111,724.563 992.46,724.85C992.776,725.112 993.091,725.375 993.404,725.638C993.695,725.879 993.984,726.122 994.272,726.366C994.585,726.632 994.898,726.899 995.209,727.166C995.502,727.417 995.794,727.668 996.085,727.919C996.707,728.458 997.325,729 997.939,729.547C998.267,729.839 998.594,730.132 998.919,730.425C999.197,730.674 999.475,730.925 999.752,731.177C1000.05,731.447 1000.34,731.72 1000.64,731.992C1000.95,732.275 1001.25,732.557 1001.56,732.842C1001.84,733.101 1002.11,733.362 1002.39,733.623C1002.7,733.912 1003,734.201 1003.31,734.492C1003.6,734.768 1003.89,735.046 1004.17,735.324C1004.47,735.606 1004.76,735.889 1005.05,736.173C1005.33,736.445 1005.6,736.72 1005.88,736.994C1006.18,737.294 1006.49,737.593 1006.79,737.895C1007.05,738.158 1007.31,738.422 1007.57,738.687C1007.88,738.995 1008.18,739.302 1008.48,739.612L1009.26,740.41L1010.16,741.351C1010.41,741.612 1010.66,741.876 1010.9,742.14C1011.22,742.471 1011.53,742.802 1011.84,743.135C1012.11,743.424 1012.37,743.715 1012.64,744.005L1013.42,744.855C1013.74,745.207 1014.06,745.561 1014.37,745.914L1015.03,746.652L1015.96,747.702L1016.65,748.493C1016.94,748.839 1017.24,749.187 1017.54,749.534C1017.76,749.795 1017.99,750.055 1018.21,750.317C1018.52,750.688 1018.83,751.06 1019.14,751.433C1019.35,751.681 1019.55,751.928 1019.76,752.178C1020.05,752.526 1020.33,752.877 1020.62,753.228C1020.85,753.514 1021.08,753.799 1021.32,754.087C1021.54,754.36 1021.75,754.634 1021.97,754.908C1022.27,755.277 1022.56,755.646 1022.85,756.018L1023.45,756.784C1023.75,757.168 1024.05,757.551 1024.34,757.937C1024.53,758.182 1024.72,758.43 1024.9,758.677C1025.21,759.076 1025.51,759.475 1025.81,759.876C1025.98,760.113 1026.16,760.351 1026.34,760.589C1026.64,761 1026.95,761.412 1027.25,761.826C1027.41,762.056 1027.58,762.287 1027.75,762.518C1028.05,762.939 1028.36,763.36 1028.66,763.784L1029.35,764.771C1029.58,765.092 1029.8,765.413 1030.03,765.735C1030.27,766.083 1030.51,766.432 1030.74,766.781C1030.97,767.107 1031.19,767.433 1031.41,767.761C1031.64,768.095 1031.86,768.432 1032.09,768.768C1032.31,769.108 1032.54,769.448 1032.77,769.79C1032.96,770.09 1033.16,770.392 1033.36,770.693C1033.61,771.078 1033.86,771.462 1034.1,771.848C1034.28,772.124 1034.46,772.402 1034.63,772.68C1034.9,773.097 1035.16,773.514 1035.42,773.934L1035.87,774.653C1036.14,775.101 1036.42,775.55 1036.69,776L1037.11,776.688C1037.39,777.162 1037.68,777.636 1037.96,778.113C1038.11,778.364 1038.25,778.616 1038.4,778.867C1038.65,779.289 1038.9,779.711 1039.14,780.135L1039.71,781.129C1039.93,781.524 1040.16,781.919 1040.38,782.316L1040.62,782.75C1040.93,783.31 1041.24,783.872 1041.54,784.436C1041.74,784.79 1041.93,785.146 1042.12,785.502L1042.66,786.52C1042.87,786.907 1043.07,787.297 1043.27,787.686L1043.81,788.733C1043.99,789.074 1044.16,789.418 1044.33,789.76C1044.53,790.144 1044.72,790.528 1044.92,790.914C1045.11,791.315 1045.31,791.719 1045.51,792.121C1045.66,792.435 1045.82,792.749 1045.97,793.064C1046.14,793.427 1046.32,793.792 1046.49,794.156C1046.68,794.562 1046.88,794.968 1047.07,795.375C1047.19,795.645 1047.32,795.916 1047.44,796.187L1048.1,797.621C1048.13,797.68 1048.15,797.739 1048.18,797.798C1049.16,799.967 1050.1,802.155 1051,804.363C1051.03,804.426 1051.05,804.49 1051.08,804.553C1051.36,805.235 1051.63,805.919 1051.9,806.604C1052.13,807.178 1052.35,807.753 1052.57,808.329C1052.66,808.546 1052.74,808.764 1052.82,808.981C1052.85,809.052 1052.88,809.123 1052.9,809.193C1053.02,809.49 1053.13,809.786 1053.24,810.083C1053.28,810.182 1053.31,810.282 1053.35,810.382C1053.74,811.43 1054.12,812.482 1054.5,813.538C1054.55,813.692 1054.6,813.846 1054.66,814C1054.74,814.243 1054.83,814.485 1054.91,814.729C1055.1,815.275 1055.29,815.823 1055.47,816.372L1055.71,817.068C1055.89,817.632 1056.08,818.198 1056.26,818.764C1056.33,818.986 1056.4,819.21 1056.48,819.433L1056.63,819.921C1057.07,821.328 1057.5,822.742 1057.92,824.163L1057.95,824.274C1058.058,824.634 1058.161,824.995 1058.26,825.357C1058.44,825.97 1058.61,826.584 1058.78,827.198C1058.83,827.376 1058.88,827.554 1058.92,827.731C1059.09,828.354 1059.26,828.979 1059.42,829.604C1059.86,831.273 1060.28,832.95 1060.67,834.636C1060.85,835.392 1061.02,836.149 1061.19,836.908C1061.23,837.082 1061.27,837.257 1061.3,837.431L1061.72,839.364L1061.81,839.81C1061.85,840.016 1061.9,840.224 1061.94,840.431L1062.3,842.241C1062.35,842.517 1062.4,842.793 1062.46,843.068C1062.48,843.193 1062.5,843.318 1062.53,843.442C1062.57,843.701 1062.62,843.959 1062.67,844.218L1062.79,844.904C1062.98,845.948 1063.16,846.994 1063.33,848.043L1063.39,848.366L1063.72,850.503C1064.674,856.813 1065.328,863.166 1065.68,869.538C1065.71,869.988 1065.73,870.439 1065.75,870.891C1065.77,871.359 1065.8,871.827 1065.82,872.296C1065.933,875.059 1065.993,877.823 1066,880.588L863.487,880.588C938.528,880.588 1004.04,921.403 1039.02,982.044C1046.971,995.821 1053.261,1010.492 1057.76,1025.75C1058.02,1026.61 1058.27,1027.47 1058.51,1028.34C1059.104,1030.453 1059.661,1032.577 1060.18,1034.71C1060.58,1036.32 1060.95,1037.93 1061.3,1039.55C1061.54,1040.628 1061.77,1041.708 1061.99,1042.79C1062.1,1043.34 1062.21,1043.88 1062.31,1044.42C1062.63,1046.06 1062.92,1047.7 1063.2,1049.34C1063.754,1052.648 1064.227,1055.969 1064.62,1059.3C1064.81,1060.98 1064.99,1062.65 1065.14,1064.34C1065.25,1065.46 1065.34,1066.59 1065.42,1067.72C1065.908,1074.131 1066.088,1080.562 1065.96,1086.99C1065.93,1088.74 1065.88,1090.48 1065.8,1092.23C1065.74,1093.48 1065.67,1094.73 1065.6,1095.98C1065.51,1097.31 1065.42,1098.64 1065.31,1099.97L1065.1,1102.34C1065.02,1103.18 1064.93,1104.02 1064.84,1104.86C1064.72,1106.03 1064.58,1107.2 1064.44,1108.36C1064.31,1109.38 1064.18,1110.4 1064.04,1111.42C1063.89,1112.48 1063.73,1113.54 1063.56,1114.6C1063.207,1116.887 1062.814,1119.167 1062.38,1121.44C1062.03,1123.24 1061.66,1125.03 1061.27,1126.82L1061.09,1127.61C1060.95,1128.25 1060.8,1128.89 1060.65,1129.53C1060.27,1131.16 1059.87,1132.79 1059.44,1134.41C1059.36,1134.74 1059.27,1135.08 1059.18,1135.41L1059,1136.06C1058.84,1136.67 1058.67,1137.28 1058.5,1137.89C1058.22,1138.87 1057.94,1139.85 1057.65,1140.83C1057.59,1141.03 1057.53,1141.23 1057.47,1141.44L1057.29,1142.02C1057.24,1142.19 1057.19,1142.36 1057.14,1142.52C1057.07,1142.76 1056.99,1143 1056.92,1143.24C1056.74,1143.83 1056.55,1144.42 1056.36,1145C1055.92,1146.38 1055.46,1147.76 1054.99,1149.13C1054.79,1149.72 1054.58,1150.3 1054.37,1150.89C1053.968,1152.047 1053.548,1153.197 1053.11,1154.34C1052.9,1154.91 1052.68,1155.49 1052.46,1156.06C1052.22,1156.67 1051.99,1157.27 1051.75,1157.87C1051.68,1158.05 1051.61,1158.23 1051.54,1158.4C1051.47,1158.57 1051.4,1158.73 1051.34,1158.89C1051.26,1159.08 1051.18,1159.27 1051.11,1159.46C1051.01,1159.7 1050.91,1159.95 1050.81,1160.19C1050.75,1160.33 1050.69,1160.48 1050.63,1160.63C1050.19,1161.68 1049.74,1162.73 1049.29,1163.77L1049.2,1163.98C1048.92,1164.64 1048.62,1165.3 1048.33,1165.95C1048.28,1166.06 1048.23,1166.17 1048.19,1166.27L1047.32,1168.16C1047.27,1168.28 1047.21,1168.4 1047.15,1168.52C1047.02,1168.81 1046.88,1169.1 1046.75,1169.39C1046.53,1169.84 1046.32,1170.3 1046.1,1170.75C1045.95,1171.05 1045.81,1171.35 1045.66,1171.65L1045,1173C1044.89,1173.23 1044.77,1173.45 1044.66,1173.67C1044.41,1174.18 1044.15,1174.69 1043.9,1175.19C1043.76,1175.46 1043.62,1175.72 1043.49,1175.98C1043.26,1176.43 1043.03,1176.87 1042.79,1177.31C1042.61,1177.65 1042.43,1178 1042.25,1178.34C1042.05,1178.71 1041.85,1179.09 1041.64,1179.47C1041.48,1179.77 1041.31,1180.08 1041.14,1180.38C1040.91,1180.81 1040.67,1181.23 1040.44,1181.66C1040.31,1181.89 1040.18,1182.12 1040.04,1182.36C1039.78,1182.83 1039.51,1183.31 1039.24,1183.78C1039.09,1184.03 1038.95,1184.28 1038.8,1184.53C1038.54,1184.98 1038.28,1185.42 1038.02,1185.87C1037.84,1186.18 1037.65,1186.49 1037.47,1186.79C1037.24,1187.17 1037.02,1187.55 1036.79,1187.93C1036.6,1188.25 1036.4,1188.56 1036.2,1188.88C1035.97,1189.27 1035.73,1189.66 1035.49,1190.05C1035.32,1190.32 1035.14,1190.59 1034.97,1190.87C1034.72,1191.27 1034.46,1191.68 1034.2,1192.09L1033.63,1192.96L1032.87,1194.14C1032.66,1194.46 1032.45,1194.78 1032.24,1195.09C1032.01,1195.43 1031.78,1195.77 1031.56,1196.11C1031.34,1196.44 1031.11,1196.76 1030.89,1197.09C1030.64,1197.46 1030.39,1197.83 1030.13,1198.2C1029.93,1198.49 1029.72,1198.78 1029.52,1199.07C1029.28,1199.42 1029.04,1199.76 1028.8,1200.1L1027.96,1201.27C1027.77,1201.54 1027.57,1201.81 1027.38,1202.08C1027.14,1202.41 1026.89,1202.74 1026.65,1203.07L1025.91,1204.08C1025.68,1204.38 1025.45,1204.69 1025.22,1204.99C1024.97,1205.32 1024.72,1205.65 1024.47,1205.97C1024.19,1206.35 1023.89,1206.73 1023.6,1207.1C1023.4,1207.36 1023.2,1207.63 1022.99,1207.89L1022.09,1209.03C1021.89,1209.28 1021.69,1209.53 1021.5,1209.78C1021.21,1210.13 1020.93,1210.47 1020.65,1210.82C1020.4,1211.12 1020.16,1211.42 1019.91,1211.72C1019.65,1212.04 1019.39,1212.35 1019.13,1212.67C1018.89,1212.96 1018.64,1213.25 1018.4,1213.54C1018.09,1213.91 1017.78,1214.27 1017.47,1214.63C1017.26,1214.88 1017.05,1215.13 1016.83,1215.37C1016.55,1215.71 1016.26,1216.04 1015.97,1216.37C1015.71,1216.67 1015.45,1216.97 1015.19,1217.26C1014.94,1217.54 1014.69,1217.81 1014.44,1218.09C1013.89,1218.719 1013.33,1219.339 1012.76,1219.95C1012.5,1220.23 1012.24,1220.52 1011.97,1220.81L1011.09,1221.75C1010.82,1222.04 1010.54,1222.33 1010.26,1222.62C1009.99,1222.91 1009.72,1223.2 1009.44,1223.48C1009.17,1223.77 1008.89,1224.05 1008.62,1224.34C1008.33,1224.63 1008.05,1224.92 1007.76,1225.21C1007.47,1225.5 1007.18,1225.8 1006.89,1226.09C1006.6,1226.38 1006.32,1226.66 1006.03,1226.94C1005.75,1227.22 1005.47,1227.5 1005.19,1227.77C1004.89,1228.07 1004.58,1228.37 1004.27,1228.67L1003.44,1229.47C1003.16,1229.74 1002.88,1230 1002.59,1230.27C1002.28,1230.57 1001.96,1230.87 1001.65,1231.16L1000.74,1232.01C1000.47,1232.25 1000.21,1232.49 999.945,1232.73L998.887,1233.69L998.085,1234.41C997.819,1234.65 997.552,1234.88 997.284,1235.12L996.224,1236.05C995.953,1236.28 995.681,1236.51 995.409,1236.75C995.075,1237.03 994.741,1237.32 994.405,1237.61C994.128,1237.84 993.849,1238.08 993.57,1238.31C993.229,1238.6 992.888,1238.88 992.545,1239.17C992.271,1239.39 991.994,1239.62 991.719,1239.84C991.356,1240.14 990.992,1240.44 990.627,1240.73C990.377,1240.94 990.126,1241.14 989.875,1241.34C989.505,1241.63 989.135,1241.93 988.764,1242.22C988.474,1242.45 988.183,1242.68 987.892,1242.9C987.541,1243.18 987.191,1243.45 986.839,1243.72L985.969,1244.38C985.632,1244.64 985.296,1244.9 984.958,1245.15L983.914,1245.93C983.609,1246.15 983.304,1246.38 982.997,1246.6C982.676,1246.84 982.353,1247.07 982.03,1247.31L981.061,1248C980.722,1248.25 980.381,1248.49 980.041,1248.73L979.046,1249.42L978.009,1250.14C977.679,1250.37 977.349,1250.59 977.018,1250.82L976.038,1251.48C975.703,1251.7 975.368,1251.93 975.031,1252.15L973.884,1252.9C973.599,1253.08 973.315,1253.27 973.029,1253.46C972.616,1253.72 972.201,1253.99 971.785,1254.25L970.98,1254.76C970.614,1254.99 970.245,1255.22 969.877,1255.44C969.516,1255.67 969.155,1255.89 968.792,1256.11C968.455,1256.32 968.116,1256.52 967.778,1256.72C967.455,1256.92 967.133,1257.11 966.809,1257.31C966.426,1257.53 966.042,1257.76 965.658,1257.98C965.321,1258.18 964.983,1258.38 964.645,1258.57C964.255,1258.8 963.865,1259.02 963.474,1259.24C963.185,1259.41 962.897,1259.57 962.607,1259.74L961.415,1260.4L960.374,1260.97C960.016,1261.17 959.657,1261.36 959.298,1261.55L958.239,1262.12C957.889,1262.31 957.536,1262.49 957.185,1262.68C956.808,1262.87 956.431,1263.07 956.053,1263.26C955.678,1263.46 955.301,1263.65 954.925,1263.84C954.6,1264 954.274,1264.17 953.948,1264.33C953.535,1264.54 953.121,1264.74 952.707,1264.95C952.372,1265.11 952.036,1265.28 951.7,1265.44L950.518,1266.01C950.183,1266.17 949.848,1266.33 949.512,1266.48C948.939,1266.75 948.366,1267.02 947.79,1267.28L947.464,1267.43C946.052,1268.08 944.631,1268.71 943.201,1269.32C943.166,1269.33 943.131,1269.35 943.096,1269.36C942.412,1269.66 941.726,1269.95 941.037,1270.23L940.312,1270.53C940.186,1270.58 940.059,1270.64 939.932,1270.69L939.32,1270.93L938.749,1271.17C938.515,1271.26 938.28,1271.35 938.046,1271.45C937.926,1271.49 937.805,1271.54 937.685,1271.59L936.99,1271.86C936.801,1271.93 936.611,1272.01 936.421,1272.08C936.298,1272.13 936.175,1272.18 936.052,1272.22C935.797,1272.32 935.543,1272.42 935.288,1272.51C935.066,1272.6 934.844,1272.68 934.622,1272.76C934.477,1272.82 934.332,1272.87 934.187,1272.93C933.934,1273.02 933.681,1273.12 933.428,1273.21C933.302,1273.26 933.176,1273.3 933.05,1273.35L932.373,1273.59C932.178,1273.66 931.983,1273.74 931.787,1273.81C931.648,1273.852 931.51,1273.899 931.374,1273.95C931.132,1274.04 930.89,1274.12 930.647,1274.21C930.464,1274.27 930.28,1274.34 930.097,1274.4C929.884,1274.48 929.672,1274.55 929.459,1274.62C929.358,1274.66 929.258,1274.69 929.157,1274.73L928.255,1275.03L927.908,1275.15C927.653,1275.23 927.398,1275.32 927.143,1275.41C926.943,1275.47 926.743,1275.54 926.543,1275.6C926.342,1275.67 926.141,1275.73 925.939,1275.8L925.572,1275.92C925.293,1276.01 925.013,1276.1 924.733,1276.18C923.695,1276.51 922.654,1276.83 921.608,1277.15C921.487,1277.18 921.365,1277.22 921.243,1277.26C921.049,1277.31 920.855,1277.37 920.66,1277.43C920.434,1277.5 920.208,1277.56 919.981,1277.63C919.887,1277.65 919.792,1277.68 919.697,1277.71C919.011,1277.91 918.323,1278.1 917.634,1278.29C917.482,1278.33 917.33,1278.38 917.178,1278.42C916.903,1278.49 916.628,1278.57 916.353,1278.64C916.266,1278.67 916.18,1278.69 916.094,1278.71L915.189,1278.95C915.099,1278.98 915.008,1279 914.918,1279.02C914.197,1279.21 913.474,1279.4 912.749,1279.58C912.611,1279.61 912.473,1279.65 912.335,1279.68C912.078,1279.74 911.821,1279.81 911.564,1279.87L911.208,1279.96C910.535,1280.12 909.86,1280.28 909.185,1280.43C908.959,1280.49 908.733,1280.54 908.507,1280.59L907.855,1280.74C907.791,1280.75 907.727,1280.76 907.662,1280.78C907.323,1280.85 906.983,1280.93 906.643,1281C906.565,1281.02 906.487,1281.04 906.409,1281.05C906.079,1281.13 905.748,1281.2 905.417,1281.27C903.376,1281.688 901.33,1282.085 899.281,1282.46C899.146,1282.48 899.01,1282.51 898.874,1282.53C897.746,1282.73 896.615,1282.92 895.48,1283.1C895.436,1283.11 895.391,1283.11 895.347,1283.12C895.002,1283.17 894.656,1283.23 894.311,1283.28C894.068,1283.32 893.825,1283.35 893.582,1283.39L892.978,1283.48C892.941,1283.49 892.905,1283.49 892.869,1283.5L890.714,1283.8L889.792,1283.92C889.185,1284 888.578,1284.07 887.97,1284.15L887.209,1284.24C887.042,1284.26 886.875,1284.28 886.708,1284.29C886.388,1284.33 886.067,1284.37 885.746,1284.4L885.452,1284.43C885.316,1284.45 885.181,1284.46 885.045,1284.48L882.97,1284.69L881.951,1284.78L881.612,1284.81L880.936,1284.87C880.725,1284.89 880.514,1284.91 880.303,1284.92C880.256,1284.93 880.209,1284.93 880.162,1284.93C877.227,1285.17 874.273,1285.35 871.304,1285.46C871.256,1285.47 871.209,1285.47 871.161,1285.47C869.048,1285.55 866.926,1285.59 864.797,1285.61L456.864,1285.61C454.295,1285.61 451.736,1285.56 449.189,1285.47C449.142,1285.47 449.094,1285.47 449.047,1285.46C446.077,1285.35 443.124,1285.17 440.188,1284.93C440.142,1284.93 440.095,1284.93 440.048,1284.92C439.837,1284.91 439.626,1284.89 439.415,1284.87L438.738,1284.81L438.399,1284.78L437.381,1284.69L435.306,1284.48C435.17,1284.46 435.034,1284.45 434.898,1284.43L434.604,1284.4C434.284,1284.37 433.963,1284.33 433.643,1284.29C433.476,1284.28 433.309,1284.26 433.142,1284.24L432.381,1284.15C431.773,1284.07 431.165,1284 430.559,1283.92L429.637,1283.8L427.481,1283.5C427.445,1283.49 427.409,1283.49 427.373,1283.48L426.769,1283.39C426.526,1283.35 426.283,1283.32 426.04,1283.28C425.695,1283.23 425.35,1283.17 425.005,1283.12C424.96,1283.11 424.915,1283.11 424.87,1283.1C423.736,1282.92 422.605,1282.73 421.477,1282.53C421.341,1282.51 421.205,1282.48 421.069,1282.46C420.039,1282.27 419.011,1282.08 417.985,1281.88C416.965,1281.68 415.948,1281.48 414.934,1281.27C414.602,1281.2 414.272,1281.13 413.941,1281.05C413.864,1281.04 413.786,1281.02 413.708,1281C413.368,1280.93 413.028,1280.85 412.688,1280.78C412.625,1280.762 412.56,1280.748 412.495,1280.74L411.844,1280.59C411.211,1280.45 410.579,1280.3 409.948,1280.15C409.773,1280.11 409.599,1280.07 409.424,1280.02L408.786,1279.87C408.529,1279.81 408.272,1279.74 408.016,1279.68C407.878,1279.65 407.739,1279.61 407.602,1279.58C406.877,1279.4 406.155,1279.21 405.434,1279.02C405.342,1279.001 405.251,1278.978 405.161,1278.95L404.257,1278.71C404.171,1278.69 404.084,1278.67 403.998,1278.64C403.723,1278.57 403.448,1278.49 403.173,1278.42C403.021,1278.38 402.869,1278.33 402.717,1278.29C402.028,1278.1 401.34,1277.91 400.653,1277.71C400.56,1277.679 400.465,1277.652 400.369,1277.63C400.143,1277.56 399.916,1277.5 399.69,1277.43C399.496,1277.37 399.302,1277.31 399.107,1277.26C398.987,1277.219 398.865,1277.182 398.742,1277.15C397.697,1276.83 396.655,1276.51 395.617,1276.18C395.337,1276.1 395.058,1276.01 394.778,1275.92L394.411,1275.8C394.21,1275.73 394.009,1275.67 393.808,1275.6C393.608,1275.54 393.408,1275.47 393.208,1275.41C392.953,1275.32 392.697,1275.23 392.442,1275.15L392.096,1275.03L391.193,1274.73C391.093,1274.69 390.992,1274.66 390.892,1274.62C390.679,1274.55 390.466,1274.48 390.254,1274.4C390.07,1274.34 389.887,1274.27 389.703,1274.21C389.461,1274.12 389.218,1274.04 388.977,1273.95C388.839,1273.9 388.701,1273.85 388.563,1273.81C388.368,1273.74 388.173,1273.66 387.978,1273.59L387.301,1273.35C387.175,1273.3 387.049,1273.26 386.923,1273.21C386.67,1273.12 386.417,1273.02 386.164,1272.93C386.019,1272.87 385.874,1272.82 385.729,1272.76C385.507,1272.68 385.284,1272.6 385.062,1272.51C384.806,1272.418 384.552,1272.321 384.299,1272.22C384.174,1272.177 384.051,1272.131 383.93,1272.08C383.74,1272.01 383.55,1271.93 383.36,1271.86L382.679,1271.59C382.512,1271.53 382.345,1271.46 382.178,1271.39C382.006,1271.33 381.834,1271.26 381.662,1271.19C381.43,1271.1 381.198,1271 380.966,1270.91C380.783,1270.84 380.601,1270.76 380.419,1270.69C380.292,1270.64 380.165,1270.58 380.038,1270.53L379.313,1270.23C378.625,1269.95 377.939,1269.66 377.255,1269.36C377.22,1269.35 377.184,1269.33 377.149,1269.32C375.61,1268.663 374.08,1267.983 372.561,1267.28C371.985,1267.02 371.411,1266.75 370.839,1266.48C370.503,1266.33 370.168,1266.17 369.833,1266.01L368.65,1265.44C368.314,1265.28 367.979,1265.11 367.644,1264.95C367.229,1264.74 366.815,1264.54 366.402,1264.33C366.077,1264.17 365.752,1264 365.427,1263.84C365.048,1263.651 364.672,1263.458 364.298,1263.26C363.92,1263.07 363.543,1262.87 363.166,1262.68C362.814,1262.49 362.462,1262.31 362.111,1262.12L361.053,1261.55C360.694,1261.36 360.334,1261.17 359.977,1260.97L358.936,1260.4L357.743,1259.74C357.454,1259.57 357.165,1259.41 356.877,1259.24C356.486,1259.02 356.095,1258.8 355.706,1258.57C355.367,1258.38 355.03,1258.18 354.692,1257.98C354.308,1257.76 353.924,1257.53 353.542,1257.31C353.218,1257.11 352.895,1256.92 352.572,1256.72C352.234,1256.52 351.895,1256.32 351.559,1256.11C351.196,1255.89 350.835,1255.67 350.474,1255.44C350.104,1255.217 349.735,1254.991 349.37,1254.76L348.565,1254.25C348.15,1253.99 347.735,1253.72 347.321,1253.46C347.036,1253.27 346.751,1253.08 346.467,1252.9L345.319,1252.15L344.239,1251.43C343.96,1251.24 343.68,1251.05 343.401,1250.87C343.011,1250.6 342.623,1250.33 342.235,1250.07C341.929,1249.86 341.622,1249.65 341.316,1249.43C340.98,1249.2 340.645,1248.96 340.31,1248.73C339.97,1248.49 339.629,1248.25 339.291,1248L338.32,1247.31C337.998,1247.07 337.675,1246.84 337.354,1246.6C337.047,1246.38 336.742,1246.15 336.437,1245.93C336.088,1245.67 335.74,1245.41 335.393,1245.15C335.055,1244.9 334.718,1244.64 334.382,1244.38L333.512,1243.72C333.16,1243.45 332.809,1243.18 332.459,1242.9C332.166,1242.677 331.875,1242.45 331.587,1242.22C331.215,1241.93 330.845,1241.63 330.476,1241.34C330.225,1241.14 329.973,1240.94 329.724,1240.73C329.358,1240.44 328.995,1240.14 328.632,1239.84C328.356,1239.62 328.08,1239.39 327.806,1239.17C327.462,1238.88 327.122,1238.6 326.78,1238.31C326.502,1238.08 326.223,1237.84 325.945,1237.61C325.61,1237.32 325.275,1237.03 324.941,1236.75C324.67,1236.51 324.397,1236.28 324.127,1236.05L323.066,1235.12C322.799,1234.88 322.532,1234.65 322.266,1234.41C321.997,1234.17 321.73,1233.93 321.464,1233.69C321.109,1233.37 320.756,1233.05 320.405,1232.73L319.615,1232.01C319.31,1231.73 319.005,1231.44 318.702,1231.16C318.386,1230.87 318.073,1230.57 317.759,1230.27C317.475,1230 317.191,1229.74 316.909,1229.47C316.632,1229.2 316.357,1228.94 316.082,1228.67L315.158,1227.77C314.877,1227.5 314.598,1227.22 314.318,1226.94C314.034,1226.66 313.748,1226.38 313.465,1226.09C313.171,1225.8 312.879,1225.5 312.587,1225.21L311.734,1224.34C311.458,1224.05 311.183,1223.77 310.908,1223.48C310.634,1223.2 310.359,1222.91 310.087,1222.62L309.26,1221.75C308.965,1221.43 308.67,1221.12 308.378,1220.81C308.113,1220.52 307.852,1220.23 307.589,1219.95L306.79,1219.08L305.906,1218.09C305.661,1217.82 305.415,1217.54 305.171,1217.27C304.838,1216.89 304.505,1216.51 304.174,1216.13C303.97,1215.9 303.766,1215.66 303.563,1215.43C303.31,1215.13 303.058,1214.84 302.806,1214.54C302.522,1214.21 302.237,1213.88 301.955,1213.54L301.221,1212.67C300.961,1212.35 300.701,1212.04 300.443,1211.73C300.147,1211.37 299.853,1211.01 299.559,1210.64C299.338,1210.37 299.119,1210.1 298.9,1209.83C298.659,1209.53 298.42,1209.23 298.181,1208.93C297.907,1208.58 297.632,1208.24 297.36,1207.89C297.155,1207.63 296.951,1207.36 296.747,1207.1C296.456,1206.73 296.164,1206.35 295.876,1205.97C295.627,1205.65 295.38,1205.32 295.133,1204.99C294.903,1204.69 294.671,1204.38 294.442,1204.08C294.193,1203.74 293.947,1203.41 293.7,1203.07L292.974,1202.08C292.779,1201.81 292.584,1201.54 292.391,1201.27C292.11,1200.88 291.83,1200.49 291.552,1200.1C291.31,1199.76 291.071,1199.42 290.831,1199.07C290.626,1198.78 290.422,1198.49 290.219,1198.2C289.964,1197.83 289.711,1197.46 289.46,1197.09C289.238,1196.76 289.014,1196.44 288.794,1196.11L288.114,1195.09C287.901,1194.775 287.691,1194.458 287.484,1194.14C287.226,1193.75 286.971,1193.35 286.716,1192.96C286.526,1192.67 286.337,1192.38 286.15,1192.09C285.891,1191.68 285.635,1191.27 285.378,1190.87C285.207,1190.59 285.035,1190.32 284.865,1190.05C284.624,1189.66 284.385,1189.27 284.146,1188.88C283.951,1188.56 283.754,1188.25 283.56,1187.93C283.332,1187.55 283.106,1187.17 282.881,1186.79C282.697,1186.49 282.512,1186.18 282.33,1185.87C282.067,1185.42 281.807,1184.98 281.547,1184.53L281.115,1183.78C280.878,1183.37 280.644,1182.95 280.409,1182.54C280.231,1182.22 280.051,1181.91 279.874,1181.59C279.689,1181.26 279.507,1180.92 279.323,1180.59C279.116,1180.21 278.908,1179.84 278.703,1179.46C278.501,1179.09 278.301,1178.71 278.101,1178.34C277.919,1178 277.736,1177.65 277.556,1177.31C277.323,1176.87 277.095,1176.43 276.865,1175.98C276.729,1175.72 276.59,1175.46 276.454,1175.19C276.196,1174.69 275.942,1174.18 275.688,1173.67C275.577,1173.45 275.464,1173.23 275.353,1173C275.13,1172.55 274.908,1172.1 274.688,1171.65L274.253,1170.75C274.034,1170.3 273.82,1169.84 273.604,1169.39L273.197,1168.52L273.029,1168.16C272.738,1167.53 272.449,1166.9 272.164,1166.27C272.117,1166.17 272.07,1166.06 272.022,1165.95C271.728,1165.3 271.436,1164.64 271.147,1163.98L271.06,1163.77C270.606,1162.73 270.159,1161.68 269.723,1160.63C269.662,1160.48 269.601,1160.33 269.54,1160.19C269.441,1159.95 269.342,1159.7 269.243,1159.46L269.013,1158.89C268.947,1158.73 268.881,1158.57 268.815,1158.4C268.745,1158.23 268.675,1158.05 268.604,1157.87C268.365,1157.27 268.126,1156.67 267.892,1156.06C267.671,1155.49 267.454,1154.91 267.238,1154.34C267.021,1153.76 266.806,1153.18 266.593,1152.6C266.385,1152.03 266.18,1151.46 265.978,1150.89C265.77,1150.3 265.563,1149.72 265.36,1149.13C264.688,1147.176 264.045,1145.213 263.431,1143.24C263.356,1143 263.283,1142.76 263.21,1142.52C263.159,1142.36 263.107,1142.19 263.057,1142.02C262.997,1141.83 262.939,1141.63 262.88,1141.44C262.819,1141.23 262.759,1141.03 262.699,1140.83C262.23,1139.245 261.779,1137.655 261.347,1136.06L261.173,1135.41C261.084,1135.08 260.996,1134.74 260.909,1134.41C260.321,1132.153 259.771,1129.886 259.259,1127.61C259.2,1127.35 259.141,1127.08 259.083,1126.82C256.582,1115.442 255.067,1103.869 254.554,1092.23C254.42,1089.189 254.353,1086.144 254.352,1083.1L254.352,880.588L254.354,880.006C254.357,879.332 254.364,878.658 254.374,877.985C254.407,875.627 254.482,873.27 254.598,870.915C255.173,859.082 256.786,847.322 259.417,835.771C259.661,834.704 259.913,833.641 260.174,832.58C261.389,827.617 262.795,822.703 264.388,817.848C264.599,817.201 264.814,816.557 265.033,815.914L265.186,815.464C265.287,815.168 265.389,814.872 265.492,814.577C265.929,813.318 266.377,812.064 266.838,810.816C266.949,810.517 267.06,810.218 267.173,809.92L267.276,809.642L267.488,809.085L267.717,808.484C267.971,807.823 268.228,807.163 268.488,806.504L268.59,806.246C268.836,805.628 269.085,805.011 269.337,804.396L269.544,803.888C269.802,803.262 270.063,802.638 270.328,802.016L270.471,801.678C270.607,801.36 270.744,801.043 270.882,800.727C271.072,800.285 271.264,799.843 271.457,799.402C271.629,799.013 271.803,798.625 271.978,798.238C272.131,797.893 272.286,797.547 272.442,797.202L272.959,796.083C273.136,795.7 273.313,795.317 273.491,794.934C273.655,794.587 273.82,794.242 273.985,793.897C274.165,793.517 274.346,793.138 274.529,792.76C274.709,792.391 274.89,792.022 275.072,791.653C275.252,791.286 275.433,790.919 275.616,790.552L276.071,789.653C276.3,789.202 276.53,788.751 276.761,788.3L277.09,787.667C277.351,787.162 277.615,786.659 277.882,786.156C277.997,785.941 278.112,785.726 278.229,785.511C278.495,785.013 278.763,784.516 279.032,784.021C279.195,783.725 279.358,783.43 279.521,783.137C279.74,782.738 279.962,782.339 280.185,781.941L280.668,781.089C280.927,780.632 281.188,780.176 281.45,779.721L281.744,779.219C282.037,778.714 282.333,778.211 282.63,777.709C282.87,777.307 283.111,776.906 283.353,776.507L283.858,775.669C284.107,775.264 284.356,774.861 284.606,774.458C284.784,774.169 284.963,773.88 285.143,773.592C285.369,773.233 285.596,772.876 285.823,772.519C286.032,772.188 286.243,771.857 286.454,771.527C286.696,771.154 286.939,770.781 287.182,770.41C287.385,770.097 287.588,769.786 287.793,769.475C288.029,769.119 288.266,768.764 288.504,768.411C288.716,768.092 288.929,767.774 289.144,767.457C289.377,767.114 289.612,766.771 289.849,766.43C290.068,766.109 290.288,765.789 290.509,765.47C290.704,765.191 290.899,764.913 291.095,764.636C291.378,764.232 291.662,763.829 291.947,763.428C292.166,763.124 292.385,762.821 292.605,762.518C292.833,762.201 293.062,761.884 293.293,761.567C293.56,761.204 293.827,760.842 294.096,760.48C294.315,760.183 294.535,759.887 294.756,759.592C295.025,759.235 295.295,758.878 295.566,758.522C295.775,758.246 295.985,757.97 296.196,757.695C296.441,757.378 296.686,757.062 296.932,756.746C297.21,756.388 297.489,756.031 297.77,755.674C297.973,755.418 298.176,755.163 298.38,754.908C298.675,754.536 298.971,754.165 299.269,753.796C299.471,753.547 299.673,753.299 299.876,753.052C300.171,752.691 300.466,752.33 300.762,751.97C301.035,751.641 301.308,751.313 301.583,750.986L302.289,750.147C302.552,749.837 302.816,749.528 303.081,749.22C303.879,748.288 304.685,747.364 305.5,746.448C305.734,746.185 305.969,745.923 306.206,745.661C306.508,745.324 306.811,744.988 307.115,744.652L307.872,743.829C308.161,743.516 308.45,743.203 308.74,742.891C309.017,742.594 309.295,742.299 309.573,742.005C309.838,741.723 310.103,741.442 310.37,741.163C310.687,740.832 311.005,740.503 311.324,740.174C311.567,739.923 311.81,739.672 312.053,739.423C312.337,739.133 312.622,738.844 312.907,738.556C313.202,738.257 313.498,737.959 313.795,737.662C314.062,737.395 314.331,737.13 314.6,736.865C314.893,736.574 315.188,736.284 315.484,735.995C315.793,735.695 316.102,735.396 316.411,735.099C316.682,734.838 316.953,734.577 317.224,734.318C317.531,734.026 317.84,733.735 318.149,733.444L318.98,732.666C319.285,732.383 319.591,732.101 319.898,731.819L320.778,731.013C321.095,730.726 321.412,730.441 321.73,730.157C322,729.914 322.271,729.672 322.542,729.431C322.865,729.144 323.19,728.859 323.515,728.575C323.81,728.316 324.105,728.057 324.402,727.8C324.689,727.553 324.976,727.306 325.265,727.061C325.593,726.778 325.922,726.497 326.253,726.218C326.587,725.937 326.922,725.656 327.258,725.377C327.511,725.165 327.766,724.953 328.021,724.742C328.373,724.451 328.727,724.162 329.082,723.873C329.382,723.628 329.682,723.385 329.983,723.142C330.282,722.902 330.583,722.663 330.884,722.424C331.21,722.163 331.537,721.904 331.865,721.646C332.179,721.399 332.494,721.154 332.81,720.91C333.136,720.657 333.463,720.404 333.79,720.152C334.085,719.926 334.381,719.701 334.677,719.478C335.665,718.726 336.662,717.984 337.667,717.254C337.968,717.034 338.27,716.815 338.573,716.598C338.936,716.335 339.3,716.074 339.665,715.814L340.492,715.231C340.877,714.96 341.262,714.691 341.649,714.422L342.53,713.817C342.896,713.566 343.262,713.316 343.629,713.067C344.3,712.616 344.973,712.167 345.647,711.721C345.981,711.502 346.316,711.283 346.651,711.066C346.976,710.854 347.303,710.643 347.631,710.432C347.978,710.209 348.325,709.988 348.674,709.769C349.031,709.542 349.389,709.317 349.748,709.092C350.065,708.895 350.382,708.698 350.7,708.503C351.066,708.276 351.432,708.051 351.799,707.828C352.124,707.631 352.449,707.435 352.774,707.24C353.137,707.022 353.499,706.805 353.862,706.59C354.241,706.367 354.62,706.145 354.999,705.924C355.306,705.744 355.614,705.565 355.923,705.387C356.303,705.168 356.684,704.951 357.066,704.734L358.079,704.162C358.433,703.965 358.788,703.768 359.143,703.572C359.498,703.375 359.853,703.18 360.21,702.986L361.284,702.406C361.653,702.208 362.022,702.011 362.393,701.815L363.427,701.274C364.193,700.876 364.961,700.482 365.731,700.093C366.029,699.942 366.327,699.793 366.624,699.644C367.382,699.265 368.143,698.891 368.907,698.522C369.28,698.343 369.652,698.166 370.024,697.989L371.081,697.489C371.475,697.305 371.87,697.122 372.266,696.94C372.616,696.779 372.966,696.618 373.317,696.458C373.696,696.287 374.076,696.116 374.456,695.947C375.411,695.521 376.368,695.102 377.329,694.689L377.514,694.611C378.969,693.991 380.431,693.388 381.9,692.802L381.988,692.767C382.876,692.413 383.767,692.065 384.66,691.725L385.308,691.479L385.665,691.346L386.419,691.063L386.864,690.899L387.615,690.624L387.801,690.557C388.905,690.156 390.013,689.764 391.126,689.382L391.283,689.328L392.271,688.993L393.164,688.696L393.304,688.649L393.896,688.455C394.512,688.254 395.129,688.056 395.747,687.86L396.446,687.641L396.932,687.49L397.479,687.322L398.164,687.112L398.374,687.05C399.808,686.617 401.247,686.201 402.691,685.802L402.831,685.763L403.522,685.573L404.09,685.419L404.47,685.317C405.164,685.132 405.858,684.95 406.554,684.772L406.751,684.723C407.076,684.64 407.401,684.558 407.727,684.477L408.022,684.403C409.232,684.103 410.445,683.815 411.66,683.538L412.6,683.326L413.015,683.234L413.8,683.062L414.36,682.943C414.993,682.807 415.628,682.674 416.264,682.545L416.677,682.462C418.178,682.16 419.682,681.874 421.19,681.606L421.827,681.495L422.441,681.388L422.752,681.335C423.485,681.211 424.219,681.09 424.953,680.974L425.139,680.945C426.305,680.761 427.473,680.588 428.643,680.425L429.239,680.343C429.898,680.252 430.557,680.165 431.217,680.082L431.697,680.023L432.444,679.931L433.545,679.802L433.685,679.786C435.281,679.604 436.878,679.441 438.478,679.298L438.789,679.27L439.05,679.247C440.663,679.106 442.281,678.985 443.904,678.882L444.351,678.855C445.221,678.803 446.091,678.756 446.961,678.713C447.662,678.679 448.365,678.648 449.068,678.621C450.07,678.583 451.072,678.553 452.074,678.53C452.556,678.519 453.038,678.51 453.521,678.502C454.635,678.484 455.75,678.475 456.864,678.475L569.119,678.475ZM493.214,1168.18L529.962,1168.18L529.962,1125.84L556.107,1125.84L566.281,1097.08L529.962,1097.08L529.962,1077.11L573.346,1077.11L583.486,1048.44L583.486,1048.35L493.214,1048.35L493.214,1168.18ZM593.871,1168.18L632.217,1168.18L632.217,1048.35L593.871,1048.35L593.871,1168.18ZM656.183,1168.18L694.528,1168.18L694.528,1125.84L718.608,1125.84L728.782,1097.08L694.528,1097.08L694.528,1077.11L735.847,1077.11L746.021,1048.35L656.183,1048.35L656.183,1168.18ZM741.237,1129.04L732.506,1152.2L726.483,1168.18L765.197,1168.18L769.516,1152.2L810.231,1152.2L814.758,1168.18L851.905,1168.18L845.515,1149.74L838.335,1129.04L810.364,1048.35L771.649,1048.35L741.237,1129.04ZM803.667,1129.04L775.776,1129.04L789.393,1078.65L803.667,1129.04ZM864.796,35.39C866.914,35.404 869.031,35.451 871.147,35.53L871.295,35.534C872.878,35.595 874.46,35.673 876.041,35.77L876.469,35.796C877.621,35.869 878.77,35.952 879.917,36.044L880.302,36.074L880.734,36.111L881.603,36.186L881.788,36.202C885.121,36.5 888.447,36.881 891.761,37.344L891.86,37.358C893.081,37.53 894.298,37.712 895.511,37.904L895.752,37.944C896.922,38.131 898.088,38.327 899.251,38.534L899.62,38.601C901.552,38.949 903.48,39.325 905.401,39.73L905.992,39.856L906.65,39.996L906.911,40.054C908.026,40.297 909.137,40.549 910.244,40.81L911.015,40.995L911.562,41.127L911.758,41.176L912.647,41.394L912.827,41.44C913.432,41.591 914.037,41.745 914.64,41.902L915.183,42.044L915.942,42.247L916.295,42.341L917.07,42.551L917.592,42.695L917.885,42.776C919.301,43.17 920.714,43.58 922.121,44.005L922.271,44.05C922.538,44.13 922.804,44.211 923.07,44.294L923.506,44.428L924.216,44.65L924.719,44.809L925.193,44.96C926.047,45.232 926.898,45.511 927.748,45.796L928.312,45.984L928.604,46.084C929.062,46.239 929.52,46.396 929.977,46.554L930.59,46.769L931.009,46.917C931.646,47.142 932.283,47.37 932.918,47.602L933.387,47.774L934.113,48.042L934.526,48.197L935.304,48.49L935.5,48.565L936.396,48.908L936.798,49.063C938.092,49.566 939.38,50.083 940.663,50.613L940.913,50.715C941.58,50.991 942.244,51.271 942.907,51.554L943.179,51.669C943.831,51.949 944.482,52.232 945.131,52.519L945.445,52.657C946.77,53.245 948.088,53.847 949.4,54.463C952.334,55.841 955.235,57.288 958.1,58.803C959.214,59.395 960.323,59.996 961.427,60.606C961.751,60.785 962.075,60.965 962.398,61.146C963.11,61.545 963.819,61.949 964.526,62.356C964.909,62.576 965.29,62.798 965.671,63.022L966.599,63.567C966.982,63.794 967.364,64.023 967.745,64.254L968.705,64.833C970.092,65.681 971.471,66.544 972.84,67.422C973.528,67.864 974.214,68.311 974.896,68.762C975.223,68.977 975.548,69.194 975.872,69.412C976.221,69.644 976.57,69.877 976.917,70.112L977.956,70.822C978.273,71.039 978.59,71.258 978.906,71.477C979.226,71.7 979.545,71.923 979.862,72.147C980.223,72.4 980.582,72.654 980.941,72.909C981.226,73.112 981.509,73.316 981.792,73.52C982.169,73.793 982.546,74.066 982.922,74.34C983.2,74.544 983.478,74.749 983.755,74.954C984.122,75.225 984.488,75.497 984.853,75.77C985.129,75.977 985.405,76.186 985.681,76.396C986.056,76.679 986.431,76.964 986.804,77.251C987.111,77.488 987.417,77.725 987.723,77.964C988.024,78.197 988.325,78.432 988.625,78.668C988.982,78.949 989.338,79.232 989.693,79.517C989.978,79.744 990.263,79.971 990.548,80.199C990.885,80.472 991.221,80.746 991.557,81.021C991.843,81.254 992.128,81.488 992.413,81.723C992.747,81.999 993.08,82.277 993.412,82.556C993.7,82.796 993.987,83.037 994.272,83.278L995.209,84.078C995.502,84.327 995.794,84.578 996.085,84.831C996.439,85.138 996.792,85.446 997.144,85.757C997.409,85.99 997.674,86.224 997.939,86.459C998.267,86.751 998.594,87.044 998.919,87.337C999.197,87.586 999.475,87.837 999.752,88.089C1000.05,88.359 1000.34,88.632 1000.64,88.904C1000.94,89.184 1001.25,89.464 1001.55,89.746L1002.51,90.644C1002.76,90.88 1003.01,91.117 1003.26,91.356C1003.56,91.646 1003.87,91.939 1004.17,92.231C1004.46,92.515 1004.76,92.799 1005.05,93.085C1005.33,93.358 1005.6,93.632 1005.88,93.906C1006.18,94.206 1006.49,94.506 1006.79,94.806L1007.54,95.563C1007.85,95.88 1008.16,96.198 1008.48,96.518C1008.77,96.821 1009.07,97.126 1009.36,97.432L1010.11,98.214C1010.47,98.589 1010.82,98.968 1011.18,99.346C1011.37,99.546 1011.56,99.746 1011.74,99.947C1012.08,100.311 1012.42,100.677 1012.76,101.044L1013.42,101.763C1013.78,102.16 1014.13,102.56 1014.49,102.96C1014.66,103.145 1014.82,103.33 1014.99,103.516C1015.33,103.897 1015.66,104.282 1016,104.666C1016.22,104.912 1016.43,105.158 1016.65,105.405C1016.94,105.751 1017.24,106.099 1017.54,106.446C1017.76,106.707 1017.99,106.967 1018.21,107.229C1018.52,107.6 1018.83,107.972 1019.14,108.345C1019.35,108.593 1019.55,108.841 1019.76,109.09C1020.05,109.438 1020.33,109.789 1020.62,110.14L1021.31,110.993C1021.6,111.353 1021.89,111.715 1022.17,112.076L1022.8,112.865C1023.1,113.242 1023.39,113.621 1023.68,113.999C1023.89,114.261 1024.09,114.523 1024.29,114.786L1025.13,115.89C1025.34,116.174 1025.56,116.458 1025.77,116.744C1026.01,117.058 1026.24,117.375 1026.48,117.69C1026.73,118.035 1026.99,118.379 1027.24,118.726C1027.53,119.119 1027.81,119.515 1028.09,119.91C1028.26,120.137 1028.42,120.363 1028.58,120.591C1028.88,121.008 1029.17,121.428 1029.47,121.848C1029.65,122.113 1029.84,122.377 1030.02,122.644C1030.3,123.034 1030.56,123.428 1030.83,123.82C1031.02,124.09 1031.2,124.36 1031.38,124.631C1031.64,125.004 1031.89,125.38 1032.14,125.755C1032.34,126.067 1032.55,126.378 1032.76,126.691C1033.04,127.113 1033.31,127.538 1033.59,127.962C1033.73,128.19 1033.88,128.418 1034.03,128.647C1034.34,129.124 1034.64,129.604 1034.94,130.084C1035.08,130.301 1035.22,130.517 1035.35,130.734C1035.6,131.125 1035.84,131.518 1036.08,131.911C1036.27,132.228 1036.47,132.544 1036.66,132.862L1037.35,134.002C1037.53,134.306 1037.71,134.61 1037.9,134.916C1038.17,135.383 1038.44,135.851 1038.72,136.32C1038.84,136.539 1038.97,136.757 1039.1,136.976C1039.36,137.436 1039.62,137.899 1039.89,138.362L1040.34,139.156C1040.54,139.528 1040.75,139.903 1040.96,140.276L1041.53,141.312C1041.74,141.711 1041.96,142.112 1042.17,142.513C1042.33,142.818 1042.5,143.123 1042.66,143.429C1042.89,143.859 1043.11,144.292 1043.34,144.725L1043.79,145.608L1044.45,146.895C1044.59,147.189 1044.74,147.482 1044.89,147.777L1045.55,149.122C1045.68,149.396 1045.82,149.669 1045.95,149.943L1046.67,151.449C1046.78,151.693 1046.9,151.937 1047.02,152.182L1047.59,153.436L1048.1,154.533C1048.13,154.592 1048.15,154.651 1048.18,154.71C1048.82,156.141 1049.45,157.581 1050.07,159.03C1050.09,159.097 1050.12,159.164 1050.15,159.23C1050.44,159.908 1050.72,160.587 1051,161.269L1051.21,161.778L1051.45,162.387C1051.85,163.386 1052.25,164.389 1052.63,165.396C1052.69,165.537 1052.74,165.677 1052.79,165.817C1052.87,166.011 1052.94,166.205 1053.02,166.399C1053.08,166.576 1053.15,166.753 1053.22,166.93L1053.43,167.512C1053.51,167.733 1053.6,167.954 1053.68,168.176C1053.9,168.775 1054.11,169.376 1054.33,169.978C1054.38,170.135 1054.44,170.293 1054.5,170.45C1054.55,170.604 1054.6,170.758 1054.66,170.912C1054.74,171.155 1054.83,171.398 1054.91,171.641C1055.53,173.425 1056.12,175.221 1056.69,177.027L1056.84,177.504C1057.28,178.904 1057.7,180.311 1058.11,181.724C1058.16,181.908 1058.21,182.092 1058.27,182.276C1058.66,183.667 1059.04,185.065 1059.41,186.469C1059.46,186.673 1059.52,186.878 1059.57,187.083C1060.55,190.857 1061.42,194.674 1062.17,198.529C1062.22,198.737 1062.26,198.945 1062.3,199.153C1062.41,199.759 1062.53,200.366 1062.64,200.974L1062.79,201.814C1063.149,203.786 1063.476,205.763 1063.77,207.746C1065.22,217.456 1065.98,227.391 1066,237.5L1066,237.905L1065.99,239.629C1065.97,242.464 1065.89,245.286 1065.75,248.093C1065.74,248.233 1065.73,248.373 1065.73,248.513C1065.62,250.621 1065.48,252.721 1065.3,254.812C1065.29,255.025 1065.27,255.239 1065.25,255.452L1065.16,256.481C1065.14,256.643 1065.13,256.805 1065.11,256.967L1064.99,258.271L1064.93,258.781C1064.9,259.161 1064.86,259.54 1064.82,259.919C1064.8,260.024 1064.79,260.129 1064.78,260.234L1064.63,261.604L1064.57,262.117C1064.52,262.486 1064.48,262.854 1064.43,263.222C1064.41,263.429 1064.38,263.636 1064.35,263.843L1064.23,264.783C1064.2,265.018 1064.17,265.253 1064.13,265.487C1064.09,265.824 1064.04,266.161 1064,266.497C1063.96,266.723 1063.93,266.948 1063.9,267.174C1063.85,267.526 1063.8,267.879 1063.74,268.23C1063.72,268.378 1063.7,268.525 1063.67,268.672C1063.62,269.046 1063.56,269.42 1063.5,269.793C1063.48,269.945 1063.45,270.096 1063.43,270.248L1063.22,271.52C1063.19,271.686 1063.16,271.852 1063.14,272.019C1063.08,272.376 1063.01,272.733 1062.95,273.09C1062.92,273.295 1062.88,273.501 1062.84,273.706C1062.78,274.07 1062.71,274.434 1062.65,274.798C1062.61,274.97 1062.58,275.143 1062.55,275.315C1062.49,275.61 1062.44,275.904 1062.38,276.198C1062.32,276.521 1062.26,276.844 1062.19,277.167C1062.15,277.407 1062.1,277.648 1062.05,277.888C1062,278.145 1061.95,278.403 1061.89,278.66C1061.83,278.996 1061.76,279.332 1061.69,279.667C1061.65,279.819 1061.62,279.971 1061.59,280.123C1061.52,280.474 1061.44,280.824 1061.36,281.174C1061.32,281.377 1061.28,281.58 1061.23,281.782C1061.17,282.064 1061.11,282.346 1061.04,282.628C1060.97,282.93 1060.91,283.232 1060.84,283.534C1060.78,283.764 1060.73,283.993 1060.68,284.223C1060.61,284.496 1060.55,284.77 1060.48,285.043C1060.4,285.388 1060.32,285.732 1060.23,286.076C1060.19,286.261 1060.14,286.446 1060.1,286.63C1060.02,286.937 1059.94,287.244 1059.87,287.55C1059.809,287.771 1059.752,287.993 1059.7,288.217L1059.43,289.267L1059.31,289.729L1059.04,290.738L1058.86,291.401L1058.59,292.355L1058.44,292.913C1058.33,293.284 1058.23,293.654 1058.12,294.023C1058.07,294.183 1058.03,294.343 1057.98,294.503C1057.9,294.796 1057.81,295.089 1057.72,295.381C1057.64,295.671 1057.55,295.962 1057.46,296.252C1057.41,296.436 1057.35,296.621 1057.3,296.805L1057,297.784L1056.82,298.354C1056.71,298.698 1056.6,299.043 1056.5,299.387L1056.35,299.855C1056.25,300.153 1056.15,300.45 1056.06,300.747C1055.95,301.068 1055.85,301.389 1055.74,301.709L1055.53,302.353L1055.32,302.969L1055.02,303.854C1054.91,304.16 1054.8,304.467 1054.7,304.772C1054.63,304.962 1054.56,305.152 1054.5,305.341L1054.17,306.273C1054.08,306.509 1054,306.746 1053.91,306.981C1053.84,307.165 1053.78,307.349 1053.71,307.533L1053.35,308.512C1053.26,308.737 1053.18,308.962 1053.09,309.188C1052.99,309.472 1052.88,309.757 1052.77,310.041C1052.71,310.21 1052.64,310.379 1052.58,310.548C1052.45,310.869 1052.33,311.191 1052.2,311.512C1052.11,311.749 1052.02,311.987 1051.92,312.224C1051.82,312.491 1051.71,312.758 1051.61,313.024C1051.51,313.263 1051.41,313.501 1051.32,313.739L1051.02,314.466C1050.95,314.653 1050.87,314.84 1050.79,315.026C1050.66,315.36 1050.52,315.694 1050.38,316.027C1050.31,316.187 1050.24,316.347 1050.18,316.507C1050.04,316.824 1049.91,317.141 1049.77,317.457C1049.67,317.708 1049.56,317.958 1049.45,318.208C1049.33,318.474 1049.22,318.74 1049.1,319.005L1048.92,319.425C1048.77,319.77 1048.61,320.115 1048.46,320.459L1048.22,320.984L1047.83,321.858L1047.56,322.44C1047.42,322.751 1047.28,323.062 1047.13,323.372C1047.071,323.508 1047.008,323.642 1046.94,323.774C1046.78,324.119 1046.62,324.464 1046.45,324.808C1046.437,324.848 1046.421,324.887 1046.4,324.923L1045.77,326.242C1045.69,326.394 1045.62,326.546 1045.54,326.698C1045.15,327.51 1044.74,328.319 1044.34,329.124L1044.31,329.188C1043.59,330.599 1042.86,332.001 1042.12,333.394C1041.48,334.587 1040.82,335.773 1040.16,336.952C1040.04,337.161 1039.93,337.371 1039.81,337.58C1039.55,338.04 1039.29,338.499 1039.02,338.956C1038.77,339.391 1038.52,339.826 1038.26,340.259C1035.245,345.41 1031.998,350.422 1028.53,355.28C1028.4,355.47 1028.26,355.659 1028.12,355.849C1027.69,356.451 1027.26,357.052 1026.82,357.649C1026.65,357.873 1026.49,358.095 1026.32,358.317C1025.57,359.334 1024.81,360.344 1024.04,361.347L1023.71,361.767C1023.51,362.022 1023.32,362.276 1023.12,362.53C1023.02,362.649 1022.93,362.768 1022.84,362.887C1022.63,363.157 1022.41,363.428 1022.2,363.697C1021.67,364.364 1021.13,365.027 1020.6,365.688L1020.36,365.977L1019.88,366.569L1019.34,367.212C1019.24,367.336 1019.14,367.46 1019.03,367.584C1018.84,367.81 1018.66,368.037 1018.47,368.262C1018.3,368.465 1018.12,368.667 1017.95,368.869C1017.81,369.041 1017.66,369.213 1017.51,369.385L1017.09,369.879C1016.57,370.486 1016.04,371.091 1015.51,371.692C1015.35,371.87 1015.2,372.048 1015.04,372.226L1014.53,372.794L1014.08,373.3C1013.55,373.887 1013.02,374.47 1012.49,375.051C1012.33,375.219 1012.18,375.385 1012.02,375.553L1011.48,376.141C1011.37,376.253 1011.27,376.365 1011.16,376.478C1010.93,376.726 1010.69,376.973 1010.46,377.22C1010.32,377.37 1010.17,377.519 1010.03,377.669C1009.82,377.887 1009.61,378.107 1009.41,378.324L1008.93,378.814L1007.91,379.862C1007.71,380.068 1007.5,380.273 1007.3,380.478L1006.97,380.812L1006.25,381.528C1006.12,381.654 1006,381.778 1005.87,381.903C1005.66,382.114 1005.44,382.326 1005.23,382.536C1005.06,382.704 1004.89,382.872 1004.71,383.039C1004.53,383.22 1004.34,383.4 1004.16,383.58C1003.99,383.741 1003.82,383.901 1003.66,384.062L1003.09,384.606C1002.9,384.783 1002.72,384.958 1002.53,385.134C1002.35,385.299 1002.18,385.465 1002,385.63L1001.55,386.052C1001.33,386.264 1001.1,386.476 1000.87,386.687C1000.74,386.81 1000.6,386.934 1000.47,387.058C1000.231,387.274 999.994,387.49 999.759,387.705L999.391,388.038C999.146,388.26 998.901,388.481 998.655,388.701C998.518,388.824 998.38,388.947 998.241,389.07C998.006,389.281 997.77,389.491 997.533,389.7L997.211,389.983C996.935,390.226 996.659,390.469 996.382,390.71L996.042,391.005L995.324,391.625L994.845,392.034L994.182,392.598L993.724,392.983L992.971,393.613L992.605,393.917C992.116,394.323 991.625,394.726 991.132,395.126L990.892,395.321C990.437,395.69 989.98,396.057 989.522,396.421C989.375,396.539 989.227,396.656 989.078,396.773C988.875,396.935 988.671,397.096 988.467,397.256L987.411,398.08C986.96,398.43 986.507,398.778 986.053,399.123L985.376,399.636L984.948,399.958L984.239,400.487L983.678,400.903C983.434,401.084 983.189,401.263 982.944,401.442L982.592,401.699C982.152,402.021 981.71,402.341 981.266,402.658L980.624,403.115L980.031,403.535L979.458,403.938L978.812,404.387L978.121,404.865L977.642,405.193C977.412,405.351 977.182,405.508 976.951,405.664L976.303,406.102L975.693,406.509L975.123,406.888L974.498,407.3C974.257,407.459 974.015,407.617 973.772,407.774C973.375,408.035 972.975,408.293 972.574,408.548L971.905,408.975C971.259,409.384 970.611,409.79 969.961,410.194C969.793,410.299 969.624,410.403 969.455,410.506C969.243,410.637 969.03,410.767 968.817,410.896C968.553,411.058 968.289,411.219 968.024,411.378L967.634,411.613C967.334,411.793 967.034,411.972 966.733,412.151L966.238,412.444L965.55,412.849L964.985,413.178L964.301,413.573L963.555,414L962.966,414.334L962.306,414.705L961.569,415.116L961.061,415.396C960.792,415.545 960.523,415.693 960.253,415.84L959.634,416.175C959.445,416.278 959.256,416.38 959.066,416.481C958.83,416.608 958.593,416.735 958.356,416.86L957.52,417.303L957.175,417.482L956.275,417.95L955.78,418.204L954.866,418.671L954.395,418.908L953.687,419.264L953.073,419.568L952.259,419.969L951.594,420.291L951.013,420.571C950.7,420.722 950.386,420.871 950.072,421.02L949.671,421.21L948.964,421.541C948.46,421.776 947.954,422.008 947.448,422.239L946.932,422.475L946.014,422.887L945.489,423.121L944.627,423.501L944.132,423.717C943.808,423.858 943.484,423.998 943.159,424.137L942.785,424.297C941.824,424.704 940.861,425.105 939.896,425.501L939.23,425.771L938.494,426.066L937.68,426.388L937.067,426.629L936.478,426.857C936.167,426.978 935.855,427.097 935.544,427.216L934.984,427.428C934.751,427.517 934.517,427.605 934.282,427.692L933.446,428.001L932.756,428.254L931.932,428.552L931.461,428.721L930.576,429.033L929.882,429.276C929.637,429.361 929.392,429.445 929.146,429.528C928.692,429.685 928.237,429.84 927.781,429.991L926.948,430.269L926.549,430.398C926.223,430.505 925.897,430.612 925.57,430.718C925.325,430.797 925.079,430.875 924.832,430.952L924.116,431.179L923.374,431.409C923.147,431.48 922.92,431.55 922.692,431.619C922.432,431.699 922.171,431.778 921.91,431.855C921.67,431.928 921.43,432.001 921.189,432.072L920.526,432.267L919.686,432.512L919.072,432.687L918.27,432.914L917.457,433.14L916.833,433.312L915.993,433.537L915.249,433.735C915.036,433.792 914.821,433.848 914.606,433.903L913.876,434.092C913.494,434.189 913.111,434.286 912.728,434.382L912.361,434.474L911.385,434.712L910.837,434.846C910.445,434.939 910.053,435.032 909.66,435.123L909.387,435.188L908.352,435.424L907.811,435.546L907.004,435.724L906.305,435.876L905.407,436.065L904.797,436.194C904.529,436.25 904.261,436.305 903.992,436.358L903.257,436.508C901.834,436.791 900.405,437.059 898.971,437.312L898.708,437.359L898.121,437.46C897.299,437.602 896.475,437.739 895.65,437.871C895.301,437.926 894.952,437.981 894.603,438.034L894.069,438.117C893.22,438.245 892.371,438.368 891.521,438.485L890.954,438.564C889.998,438.693 889.04,438.816 888.079,438.933L887.865,438.959C886.603,439.11 885.34,439.249 884.076,439.376C883.252,439.46 882.426,439.539 881.599,439.613L1066,439.613L1066,642.525L735.933,642.525L736.365,637.333L754.34,594.193L763.127,554.251L764.725,544.265L767.92,535.877C767.903,535.807 764.798,522.57 767.92,515.106C769.691,510.874 772.925,509.745 774.711,505.52C776.797,500.582 774.907,496.987 776.708,491.938C778.758,486.192 782.682,484.361 785.096,478.758C788.242,471.453 786.928,466.44 789.091,458.786C792.399,447.078 799.459,442.086 801.073,430.026C801.901,423.843 800.052,420.205 801.073,414.05C802.096,407.887 806.242,398.923 806.266,398.871C806.293,398.794 812.442,381.847 814.255,370.511C815.49,362.785 814.208,358.189 815.853,350.54C817.71,341.901 822.679,338.129 823.841,329.369C825.382,317.751 818.648,299.812 818.648,299.812C818.631,299.783 816.878,296.94 814.255,296.616C811.504,296.277 804.798,298.206 804.771,298.214L801.796,309.001C799.267,229.817 734.28,166.4 654.481,166.4C573.08,166.4 507.091,232.39 507.091,313.792C507.091,320.268 507.509,326.646 508.318,332.901L507.091,332.965L497.504,340.554C497.503,340.56 495.041,361.72 497.504,374.905C499.565,385.938 507.057,401.994 507.091,402.066L523.067,445.604L523.067,461.981L530.258,512.31C530.258,512.31 532.703,551.15 541.841,573.822C550.563,595.463 574.128,624.07 574.195,624.151C574.187,624.163 570.717,629.345 569.003,632.938C567.417,636.263 566.331,639.439 565.636,642.525L254.352,642.525L254.352,440.013C254.352,439.378 254.355,438.744 254.361,438.11L254.37,437.32C254.381,436.512 254.396,435.705 254.415,434.898C254.498,431.603 254.659,428.311 254.898,425.024C254.905,424.94 254.911,424.856 254.916,424.771L254.973,424.041C255.084,422.609 255.211,421.179 255.354,419.75C255.397,419.325 255.44,418.901 255.484,418.477L255.531,418.033C255.565,417.717 255.6,417.401 255.637,417.085C255.664,416.833 255.693,416.581 255.722,416.33L255.803,415.654C255.844,415.307 255.886,414.959 255.93,414.612L256.038,413.765L256.119,413.145C256.174,412.733 256.23,412.322 256.287,411.912L256.354,411.421L256.466,410.654C256.505,410.381 256.544,410.109 256.585,409.837C256.645,409.44 256.706,409.044 256.768,408.647L256.836,408.204L256.972,407.358L257.113,406.489L257.237,405.761L257.396,404.833L257.513,404.183L257.688,403.208L257.825,402.476C257.885,402.153 257.946,401.831 258.008,401.509L258.098,401.047C258.177,400.64 258.257,400.234 258.339,399.829L258.445,399.307C258.51,398.984 258.577,398.662 258.644,398.341L258.784,397.678L258.99,396.721L259.132,396.075L259.339,395.148L259.532,394.309L259.696,393.6L259.898,392.749L260.074,392.014C260.272,391.196 260.476,390.38 260.686,389.565L260.88,388.817C260.967,388.482 261.055,388.148 261.144,387.814L261.284,387.289L261.545,386.326L261.695,385.784C261.79,385.441 261.886,385.099 261.983,384.757L262.157,384.142L262.402,383.294L262.606,382.599L262.896,381.627L263.072,381.044L263.333,380.192L263.655,379.16L263.813,378.657L264.086,377.808L264.298,377.15L264.583,376.285C264.839,375.509 265.1,374.735 265.367,373.963L265.577,373.357L265.924,372.371L266.12,371.822L266.44,370.93L266.691,370.243L267.022,369.349L267.236,368.777L267.563,367.911L267.81,367.271C267.933,366.948 268.058,366.624 268.185,366.301L268.307,365.994C268.652,365.116 269.002,364.241 269.358,363.368L269.701,362.538L269.917,362.018C270.045,361.711 270.174,361.405 270.305,361.098L270.588,360.43C270.659,360.263 270.731,360.097 270.804,359.932C271.154,359.117 271.509,358.305 271.87,357.496C272.221,356.713 272.576,355.932 272.936,355.154L273.194,354.594L273.563,353.809L273.888,353.122C273.967,352.956 274.046,352.791 274.126,352.626C276.119,348.463 278.255,344.37 280.53,340.354L281.329,338.956C281.946,337.886 282.573,336.823 283.21,335.766C315.814,281.57 373.07,243.888 439.461,238.237C444.665,237.796 449.884,237.553 455.107,237.508L456.864,237.5L254.352,237.5C254.368,228.04 255.041,218.593 256.365,209.227C256.957,205.049 257.68,200.89 258.533,196.757C260.467,187.382 263.068,178.158 266.317,169.154C266.457,168.766 266.598,168.379 266.741,167.992C267.451,166.06 268.192,164.138 268.962,162.229C269.576,160.705 270.209,159.189 270.86,157.681C272.644,153.548 274.567,149.476 276.626,145.472C279.232,140.399 282.052,135.439 285.078,130.605C291.962,119.606 299.884,109.292 308.737,99.805C314.81,93.295 321.302,87.189 328.172,81.527C332.55,77.92 337.078,74.497 341.743,71.269C343.746,69.883 345.773,68.532 347.824,67.219C366.55,55.222 387.134,46.409 408.74,41.139C423.22,37.614 438.045,35.697 452.945,35.424C454.249,35.399 455.555,35.387 456.864,35.387L863.487,35.387L864.796,35.39Z" style="fill:rgb(179,148,77);fill-rule:nonzero;"/>
            </g>
            <g transform="matrix(1.412366,0,0,2.158231,1089.934966,-277.214681)">
                <text x="346.04px" y="278.429px" style="font-family:'Anton-Regular', 'Anton', sans-serif;font-size:50px;fill:rgb(38,38,38);">SCORES</text>
                <g transform="matrix(50,0,0,50,567.328726,278.428716)">
                </g>
                <text x="496.333px" y="278.429px" style="font-family:'Anton-Regular', 'Anton', sans-serif;font-size:50px;fill:rgb(179,148,77);">CUP</text>
            </g>
        </g>
    </g>
</svg>
